<?xml version="1.0" encoding="UTF-8" standalone="no"?>
<!-- Created with Inkscape (http://www.inkscape.org/) -->

<svg
   version="1.1"
   id="svg193"
   width="91.996269"
   height="116.6709"
   viewBox="0 0 91.996269 116.6709"
   sodipodi:docname="logo_cropped.jpg"
   inkscape:version="0.0.2 (732a01da63, 2022-12-09)"
   xmlns:inkscape="http://www.inkscape.org/namespaces/inkscape"
   xmlns:sodipodi="http://sodipodi.sourceforge.net/DTD/sodipodi-0.dtd"
   xmlns="http://www.w3.org/2000/svg"
   xmlns:svg="http://www.w3.org/2000/svg">
  <defs
     id="defs197" />
  <sodipodi:namedview
     id="namedview195"
     pagecolor="#ffffff"
     bordercolor="#000000"
     borderopacity="0.25"
     inkscape:showpageshadow="2"
     inkscape:pageopacity="0.0"
     inkscape:pagecheckerboard="0"
     inkscape:deskcolor="#d1d1d1"
     showgrid="false"
     inkscape:zoom="2.5872434"
     inkscape:cx="265.72683"
     inkscape:cy="30.920941"
     inkscape:window-width="2560"
     inkscape:window-height="1494"
     inkscape:window-x="-11"
     inkscape:window-y="-11"
     inkscape:window-maximized="1"
     inkscape:current-layer="g199" />
  <g
     inkscape:groupmode="layer"
     inkscape:label="Image"
     id="g199"
     transform="translate(-67.875038,6.3355002)">
    <path
       style="fill:#d32a2a;fill-opacity:1"
       d="m 81.669485,109.04673 c -1.488054,-1.09136 -5.313054,-3.06731 -8.5,-4.391 -4.702436,-1.95314 -5.268242,-2.41467 -3.002292,-2.44897 l 2.792154,-0.0423 -2.542154,-4.337858 c -1.646423,-2.80941 -2.542154,-5.8392 -2.542154,-8.59879 0,-3.472694 0.571732,-4.794999 3.090614,-7.147988 1.699837,-1.587886 4.962336,-3.395613 7.249999,-4.017171 2.311443,-0.628019 7.269365,-0.897606 11.159386,-0.606793 4.704373,0.351694 10.448097,1.819732 17.514202,4.476453 5.7828,2.174227 13.2078,4.751654 16.5,5.727619 3.29219,0.97597 9.1358,1.78642 12.9858,1.80101 4.43682,0.0168 8.09937,-0.54437 10.00236,-1.53259 1.6513,-0.857515 3.85442,-2.500635 4.89582,-3.651372 1.117,-1.23427 2.09196,-4.158147 2.37753,-7.130107 0.37305,-3.882364 0.0822,-5.481982 -1.26828,-6.974193 -0.9638,-1.064983 -3.71628,-2.68636 -6.11662,-3.603059 -3.7439,-1.429808 -4.62956,-1.470453 -6.23063,-0.285938 -1.0265,0.759433 -3.80183,2.844617 -6.1674,4.633743 -2.36556,1.789126 -6.14417,3.770133 -8.3969,4.402239 -2.25274,0.632105 -6.12088,1.48268 -8.59588,1.890166 -2.475,0.407486 -6.95198,0.348006 -9.94885,-0.132176 -2.99687,-0.480183 -7.721869,-1.988726 -10.500002,-3.352319 -2.778132,-1.363592 -6.803058,-4.18512 -8.944279,-6.270062 -2.141222,-2.084942 -4.989713,-5.526376 -6.329982,-7.647631 -1.340268,-2.121254 -3.070989,-5.946254 -3.846046,-8.5 -0.775057,-2.553745 -1.414065,-7.73873 -1.420019,-11.522187 -0.0076,-4.832887 -0.767579,-8.976915 -2.555008,-13.932086 -1.887652,-5.232986 -2.548568,-9.048772 -2.561178,-14.786895 -0.0093,-4.25362 0.47788,-9.571682 1.082728,-11.817915 0.604848,-2.2462332 1.425884,-4.0840604 1.824527,-4.0840604 0.398643,0 1.254437,2.2296264 1.901765,4.9547254 0.647328,2.725098 2.787798,7.47287 4.7566,10.550603 l 3.57964,5.595878 4.299917,-3.523459 c 2.364954,-1.937902 6.968477,-4.76343 10.230051,-6.278952 5.006026,-2.326099 7.254706,-2.755494 14.430136,-2.755494 7.06487,0 9.44887,0.441262 14.12001,2.613515 3.09101,1.437433 7.53117,4.340135 9.86704,6.450449 l 4.24703,3.836934 2.26467,-2.840175 c 1.24557,-1.562096 3.23716,-4.787388 4.42576,-7.167316 1.18859,-2.379928 2.50117,-6.264294 2.91684,-8.631925 l 0.75577,-4.3047834 1.83538,4.7449754 c 1.49504,3.865108 1.7404,6.553863 1.32319,14.5 -0.3602,6.860439 -1.14177,11.189082 -2.63394,14.58793 -1.47399,3.357437 -2.12175,6.889259 -2.12175,11.568499 0,3.704577 -0.71548,9.144887 -1.58996,12.089578 -0.87448,2.944692 -2.27323,6.396783 -3.10834,7.671314 -1.39223,2.12481 -1.36398,2.369726 0.33996,2.948015 1.02209,0.346877 3.81481,1.53789 6.20605,2.646696 2.40092,1.113292 5.19784,3.410155 6.24627,5.129502 1.08318,1.77634 1.90015,4.955847 1.90228,7.403329 0.002,2.363201 -0.92025,6.101007 -2.05361,8.322575 -1.56624,3.070079 -3.29688,4.609849 -7.25,6.450389 -4.12805,1.92198 -6.83282,2.41798 -13.19265,2.41927 -7.10887,10e-4 -9.94935,-0.65285 -25.5,-5.87373 -9.625,-3.231428 -19.367725,-6.184747 -21.650498,-6.562923 -3.197388,-0.529696 -5.076721,-0.215068 -8.183919,1.370106 -2.218382,1.131734 -4.738159,3.063852 -5.599503,4.293587 -0.861345,1.22974 -1.566082,3.46459 -1.566082,4.96633 0,1.50175 0.562325,3.96461 1.249612,5.47304 l 1.249611,2.742598 0.597535,-2.945538 c 0.569944,-2.80954 0.745635,-2.62933 3.804822,3.902538 1.764008,3.76645 3.070292,7.44893 2.902853,8.18328 -0.229784,1.00778 -0.967851,0.84861 -3.009986,-0.64913 z M 104.88224,42.207205 103.71346,35.277871 95.70881,32.221186 C 91.306254,30.540009 87.517609,29.1645 87.2896,29.1645 c -0.228009,0 -0.414562,1.29375 -0.414562,2.875 0,1.58125 0.28125,4.28125 0.625,6 0.619408,3.097038 0.680512,3.125 6.829063,3.125 l 6.713789,0.02416 2.25413,4.971972 c 1.27863,2.82028 2.89659,6.032799 2.72477,5.420871 -0.17437,-0.621017 -0.49672,-5.563164 -1.13955,-9.374298 z M 131.36538,41.1645 c 6.21082,0 6.26454,-0.02438 6.88466,-3.125 0.34375,-1.71875 0.625,-4.41875 0.625,-6 0,-1.58125 -0.13762,-2.875 -0.30581,-2.875 -0.1682,0 -3.84926,1.291872 -8.18015,2.870826 -5.03933,1.837242 -8.12413,3.547386 -8.56816,4.75 -0.38161,1.033546 -0.97939,4.804174 -1.32841,8.379174 l -0.63458,6.5 2.6239,-5.25 2.6239,-5.25 z"
       id="path205"
       sodipodi:nodetypes="ssccsssssssssssssssssssssssccsssscssssscssscssssssssscsscsssssscssssscssssscsssssssssscccs" />
  </g>
</svg>
